<?xml version="1.0" standalone="no"?>
<!DOCTYPE svg PUBLIC "-//W3C//DTD SVG 20010904//EN"
 "http://www.w3.org/TR/2001/REC-SVG-20010904/DTD/svg10.dtd">
<svg version="1.0" xmlns="http://www.w3.org/2000/svg"
 width="945.000000pt" height="170.000000pt" fill ="red" viewBox="0 0 945.000000 170.000000"
 preserveAspectRatio="xMidYMid meet">

<g transform="translate(0.000000,170.000000) scale(0.100000,-0.100000)"
fill="#000000" stroke="none">
<path d="M977 1273 c-147 -192 -271 -353 -277 -360 -13 -16 -435 -563 -518
-673 -36 -47 -73 -94 -84 -106 -38 -43 -31 -45 199 -42 l216 3 116 158 116
157 297 0 298 0 -5 -27 c-2 -16 -7 -88 -10 -160 l-6 -133 205 0 204 0 6 48 c3
26 8 370 12 765 l6 717 -253 0 -254 0 -268 -347z m392 -278 c-11 -159 -21
-291 -23 -292 -2 -2 -90 -2 -195 -1 l-193 3 172 240 c207 289 251 348 255 343
2 -2 -6 -133 -16 -293z"/>
<path d="M2285 973 c-221 -34 -344 -135 -345 -280 0 -64 10 -92 48 -131 38
-39 103 -71 224 -111 137 -45 171 -76 148 -135 -6 -18 -26 -35 -57 -49 -42
-19 -64 -22 -178 -21 -99 1 -146 6 -198 22 l-68 20 -9 -22 c-41 -97 -59 -151
-53 -157 21 -21 206 -43 348 -43 282 1 446 67 507 203 29 64 27 149 -5 204
-38 64 -86 93 -262 154 -55 19 -108 42 -118 51 -26 23 -18 70 16 96 40 30 217
35 334 11 46 -10 85 -16 87 -14 12 12 63 156 59 166 -9 22 -106 35 -278 38
-93 2 -183 1 -200 -2z"/>
<path d="M5075 969 c-298 -49 -475 -247 -475 -529 0 -111 19 -166 80 -233 83
-91 183 -131 354 -143 315 -22 583 111 665 330 108 290 -3 511 -286 571 -73
16 -256 18 -338 4z m248 -183 c50 -20 95 -78 103 -132 25 -171 -74 -353 -219
-398 -114 -36 -231 -6 -274 69 -82 145 19 402 180 459 53 18 168 20 210 2z"/>
<path d="M7870 961 c-208 -46 -350 -142 -420 -285 -82 -167 -57 -350 65 -465
106 -101 240 -145 445 -145 160 -1 297 18 304 43 11 38 28 163 23 168 -3 3
-34 -2 -69 -11 -35 -9 -106 -19 -158 -23 -252 -16 -385 101 -340 299 25 109
106 194 224 235 71 25 320 25 385 0 71 -28 74 -26 110 69 18 47 31 88 28 90
-16 16 -178 35 -332 39 -151 4 -194 2 -265 -14z"/>
<path d="M8835 964 c-195 -43 -295 -136 -295 -276 0 -118 50 -162 264 -234 55
-19 110 -41 123 -49 58 -38 45 -106 -26 -139 -39 -18 -64 -21 -171 -20 -82 0
-146 6 -185 16 -33 9 -66 18 -74 20 -15 3 -86 -156 -76 -172 3 -4 47 -16 97
-26 123 -24 372 -24 476 -1 140 31 245 99 283 182 23 49 25 154 5 193 -36 68
-118 119 -269 167 -109 34 -139 56 -135 98 2 19 13 38 31 51 40 30 217 35 334
11 46 -10 85 -16 87 -14 14 19 64 165 59 170 -34 33 -408 50 -528 23z"/>
<path d="M2835 958 c-11 -31 -35 -134 -35 -150 0 -16 12 -18 130 -18 72 0 130
-4 130 -9 0 -5 -23 -94 -50 -197 -28 -104 -60 -229 -71 -279 -12 -50 -25 -99
-30 -110 -9 -22 -29 -96 -29 -107 0 -5 67 -8 150 -8 l149 0 12 43 c6 23 49
181 94 352 l82 310 139 3 140 3 17 67 c10 37 20 77 23 90 l6 22 -426 0 c-332
0 -428 -3 -431 -12z"/>
<path d="M3757 964 c-5 -9 -17 -52 -153 -574 -41 -157 -77 -291 -79 -298 -4
-10 27 -12 147 -10 l151 3 17 65 c10 36 30 113 45 173 l28 107 41 0 c61 0 114
-18 128 -43 6 -12 28 -85 48 -162 l37 -140 150 -3 150 -3 -49 168 c-53 179
-74 225 -116 247 -29 15 -24 18 52 31 144 24 238 127 222 243 -13 93 -86 156
-211 182 -64 14 -600 26 -608 14z m473 -184 c55 -30 65 -80 25 -128 -32 -38
-88 -52 -208 -52 l-94 0 26 101 26 101 100 -4 c56 -3 111 -10 125 -18z"/>
<path d="M5950 964 c0 -6 -75 -291 -165 -624 -29 -107 -56 -210 -60 -228 l-7
-32 141 0 140 0 10 38 c6 20 35 138 66 262 31 124 61 243 67 265 l11 40 12
-30 c7 -16 56 -147 110 -290 54 -143 103 -266 108 -272 7 -10 58 -13 191 -13
l182 0 114 428 c62 235 115 435 118 445 4 16 -6 17 -139 15 l-143 -3 -77 -305
c-64 -257 -78 -301 -86 -280 -6 14 -54 144 -108 290 -54 146 -102 273 -107
283 -8 15 -28 17 -193 17 -102 0 -185 -3 -185 -6z"/>
<path d="M7115 958 c-2 -7 -24 -92 -49 -188 -25 -96 -75 -287 -111 -425 -35
-137 -65 -253 -65 -257 0 -5 67 -8 150 -8 l149 0 10 38 c5 20 39 150 75 287
123 475 138 536 132 551 -7 19 -284 21 -291 2z"/>
</g>
</svg>
