<?xml version="1.0" standalone="no"?>
<!DOCTYPE svg PUBLIC "-//W3C//DTD SVG 20010904//EN"
 "http://www.w3.org/TR/2001/REC-SVG-20010904/DTD/svg10.dtd">
<svg version="1.0" xmlns="http://www.w3.org/2000/svg"
 width="747.000000pt" height="705.000000pt" viewBox="0 0 747.000000 705.000000"
 preserveAspectRatio="xMidYMid meet">

<g transform="translate(0.000000,705.000000) scale(0.100000,-0.100000)"
fill="#000000" stroke="none">
<path d="M5173 6728 c-22 -25 -953 -1231 -1553 -2013 -211 -275 -539 -700
-729 -945 -654 -844 -1379 -1785 -1861 -2415 -341 -445 -520 -675 -624 -800
-104 -125 -93 -146 82 -166 104 -12 1560 -3 1623 10 29 6 53 33 191 221 87
118 303 412 480 653 l323 437 1239 0 1238 0 -6 -33 c-13 -69 -26 -199 -36
-367 -15 -253 -40 -794 -40 -872 l0 -68 850 0 c468 0 850 3 850 8 0 4 7 59 14
122 23 180 46 1606 66 4000 5 652 12 1425 16 1718 l6 532 -1054 0 -1055 0 -20
-22z m593 -1515 c-11 -244 -65 -1104 -92 -1478 -43 -608 -61 -797 -76 -806
-23 -15 -1578 -3 -1593 13 -4 3 34 62 83 130 49 67 330 458 624 868 857 1196
1023 1420 1051 1420 7 0 8 -48 3 -147z"/>
</g>
</svg>
