<?xml version="1.0" encoding="UTF-8"?>
<!DOCTYPE svg PUBLIC "-//W3C//DTD SVG 1.0//EN" "http://www.w3.org/TR/2001/REC-SVG-20010904/DTD/svg10.dtd">
<!-- Creator: CorelDRAW (Versión de evaluación) -->
<svg xmlns="http://www.w3.org/2000/svg" xml:space="preserve" width="83.7791mm" height="22.8098mm" version="1.0" style="shape-rendering:geometricPrecision; text-rendering:geometricPrecision; image-rendering:optimizeQuality; fill-rule:evenodd; clip-rule:evenodd"
viewBox="0 0 8320.28 2265.29"
 xmlns:xlink="http://www.w3.org/1999/xlink"
 xmlns:xodm="http://www.corel.com/coreldraw/odm/2003">
 <defs>
  <style type="text/css">
   <![CDATA[
    .str1 {stroke:#292929;stroke-width:19.86;stroke-miterlimit:22.9256}
    .str0 {stroke:#373535;stroke-width:9.93;stroke-miterlimit:22.9256}
    .fil1 {fill:#64C7C3}
    .fil0 {fill:black}
   ]]>
  </style>
 </defs>
 <g id="Capa_x0020_1">
  <metadata id="CorelCorpID_0Corel-Layer"/>
  <g id="_105553143004032">
   <rect class="fil0 str0" x="3455.6" y="957.59" width="419.41" height="1301.02" rx="129.06" ry="167.89"/>
   <rect class="fil0 str0" x="3442.41" y="27.32" width="419.41" height="728.43" rx="129.06" ry="94"/>
  </g>
  <path class="fil0 str0" d="M7902.24 2257.46l349.45 -0.04c61.65,-2.6 83.54,-72.37 43.07,-125.97l-1388.49 -2078.68 -360.41 0.43c-54.94,-0.12 -52.97,53.49 -35.29,75.29l624.38 951.93 -739.33 1113.96c-14.34,19.01 -3.26,62.89 21.26,62.96l394.36 2.96 540.24 -829.14 550.77 826.3z"/>
  <g id="_105553142997248">
   <path class="fil0 str0" d="M2578.39 22.19c132.9,-1.22 216.13,-8.2 315.09,2.01 45.49,7.44 62.95,51.56 54.75,91.36l-730.32 2029.97c-39.91,111.62 -13.25,100.43 -124.94,101.12l-225.72 1.33c-80.82,1.72 -78.98,-33.52 -105.77,-117.81l-329.7 -1226.24c-4.67,-16.56 -17.85,-16.34 -24.12,0.12l-465.53 1281.3c-17.89,46.32 -11.12,41.89 -70.03,42.3l-326.8 2.27c-41.57,-5.97 -60.71,-40.44 -54.08,-72.64l745.01 -2041.53c22.66,-58.65 26.75,-92.43 95.29,-94.54l208.48 2.99c78.49,-0.19 76.83,28.66 101.15,87.31l375.5 1262.48 423.74 -1228.7c31.55,-62.86 18.95,-114.79 137.99,-123.09z"/>
   <path class="fil0 str0" d="M604.57 852.98c9.84,33.73 -0.37,51.69 -24.99,55.35l-310.27 5.2c-74.31,1.24 -62.55,14.62 -80.42,-54.68 -60.74,-233.85 -121.52,-467.78 -182.26,-701.67 -8.4,-59.31 14.19,-116.54 82.9,-133.28 84.33,0.48 138.39,-5.83 222.69,-1.2 78.44,6.52 102.69,115.45 110.61,135.28 60.59,231.67 121.15,463.33 181.74,695l0 0z"/>
  </g>
  <g id="_105553142994080">
   <polygon class="fil1" points="7507.03,536.84 7425.15,654.89 7525.56,780.29 7802.04,779.65 7973.87,539.71 "/>
   <polygon class="fil1" points="7546.07,477.13 8010.09,477.37 8157.58,269.22 7689.98,268.88 "/>
   <polygon class="fil1" points="7720.8,215.06 7871.74,0 8212.48,0.06 8275.58,89.61 8188.45,214.69 "/>
  </g>
  <g id="_105553142992160">
   <rect class="fil0 str1" x="4502.54" y="48.54" width="1572.11" height="336.96" rx="53.53" ry="49.47"/>
   <rect class="fil0 str1" x="4502.54" y="1904.19" width="1572.11" height="336.96" rx="53.53" ry="49.47"/>
   <rect class="fil0 str1" x="4499.42" y="999.01" width="1294.23" height="336.96" rx="44.07" ry="49.47"/>
  </g>
 </g>
</svg>
