<?xml version="1.0" encoding="UTF-8"?>
<!DOCTYPE svg PUBLIC "-//W3C//DTD SVG 1.0//EN" "http://www.w3.org/TR/2001/REC-SVG-20010904/DTD/svg10.dtd">
<!-- Creator: CorelDRAW (Versión de evaluación) -->
<svg xmlns="http://www.w3.org/2000/svg" xml:space="preserve" width="58.2082mm" height="15.8748mm" version="1.0" style="shape-rendering:geometricPrecision; text-rendering:geometricPrecision; image-rendering:optimizeQuality; fill-rule:evenodd; clip-rule:evenodd"
viewBox="0 0 5820.82 1587.48"
 xmlns:xlink="http://www.w3.org/1999/xlink"
 xmlns:xodm="http://www.corel.com/coreldraw/odm/2003">
 <defs>
  <style type="text/css">
   <![CDATA[
    .fil0 {fill:#030303}
    .fil2 {fill:#090101}
    .fil4 {fill:#14FC03}
    .fil15 {fill:#324346}
    .fil3 {fill:#8D1500}
    .fil7 {fill:#9A2C01}
    .fil5 {fill:#A44301}
    .fil6 {fill:#AA5806}
    .fil10 {fill:#B66718}
    .fil9 {fill:#BA742A}
    .fil8 {fill:#C3813C}
    .fil12 {fill:#CF996D}
    .fil11 {fill:#D7AB86}
    .fil14 {fill:#DBB996}
    .fil13 {fill:#E6CAB6}
    .fil16 {fill:#FDFDFD}
    .fil1 {fill:white}
   ]]>
  </style>
 </defs>
 <g id="Capa_x0020_1">
  <metadata id="CorelCorpID_0Corel-Layer"/>
  <path class="fil0" d="M3994.46 838.19c23.05,10.12 148.53,14.58 182.17,6.88 28.68,-6.56 22.86,-41 22.75,-74.68 -0.09,-24.11 4.16,-79.04 -8.88,-94.09 -14.64,-16.9 -150.15,-16.13 -176.65,-9.16 -30.94,8.15 -24.5,39.84 -24.35,72.99 0.14,32.81 -1.32,68.9 4.96,98.06z"/>
  <path class="fil0" d="M2081.24 674.25c-12.45,38.89 -13,134.75 2.52,168 29.22,5.74 65.23,4.42 97.84,4.42 112.42,0.02 102.02,6.32 102.4,-101.49 0.11,-31.57 7.18,-67.04 -20.48,-76.71 -31.57,-11.04 -157.01,-5.39 -182.28,5.78z"/>
  <path class="fil0" d="M3217.08 844.27l32.71 2.47 0.44 -69.48c130.39,-0.38 45.13,69.02 167.24,69.45 -17.35,-21.28 -61.04,-50.64 -74.63,-69.34l50.64 -4.41c9.73,-20.77 14.01,-63.96 4.74,-89.13 -15.33,-25.8 -48.55,-18.79 -82.66,-18.72 -29,0.07 -70.97,-3.22 -98.01,2.2l-0.47 176.96z"/>
  <path class="fil0" d="M2398.31 845.66l27.82 1.4 0.38 -68.36c46.52,-6.77 103.16,6.08 144.29,-7.78 9.47,-19.74 9.66,-37.39 8.35,-66.43 -1.19,-26.16 -8.76,-36.68 -34.94,-39.17 -25.72,-2.44 -124.9,-2.33 -148.61,1.63 -1.54,33.59 -6.63,155.51 2.71,178.71z"/>
  <path class="fil0" d="M2673.17 846.99c39.45,-0.75 30.04,3.97 31.37,-25.59 0.61,-13.52 -1.2,-27.37 -0.08,-42.44 46.68,-8.19 101.79,4.64 144.21,-7.72 13.42,-28.96 22.62,-98.85 -22.67,-105.42 -35.98,-5.22 -111.4,-0.61 -151.97,-0.99l-0.86 182.16z"/>
  <polygon class="fil1" points="4020.74,820.38 4167.56,820.35 4167.62,691.37 4022.56,691.5 "/>
  <polygon class="fil1" points="2105.92,820.28 2252.58,820.31 2252.7,691.65 2107.78,691.54 "/>
  <path class="fil0" d="M3654.97 844.82l28.12 1.47 -0.34 -136.27c19.53,22.46 67.72,100.63 86.39,109.14 26.02,-21.37 54.08,-82.82 80.71,-110.13l-1.38 137.76 26.52 -0.68c8.47,-24.08 3.36,-144.55 2.54,-179.04l-28.73 -2.43 -79.66 114.3 -74.31 -95.47c-12.46,-18.52 -9.75,-21.62 -39.14,-16.42l-0.72 177.77z"/>
  <path class="fil0" d="M5117.14 846.12l32.79 -0.09 21.64 -43.49c155.49,0.86 105.74,-9.53 144.79,43.46l31.31 0.98 -98.34 -180.85 -34.23 -1.35 -97.96 181.34z"/>
  <path class="fil0" d="M1797.38 837.79c23.74,11.39 133.42,15.16 163.43,4.9 20.09,-13.78 19.15,-32.14 16.91,-60.34l-30.96 -6.69 -1.02 44.64 -121.51 -0.02 -0.05 -128.87 119.75 0.1 2.54 38.56 30.48 -2.61 -3.81 -54.61c-24.33,-7.94 -144.69,-16.14 -167.29,-1.45 -23.07,14.99 -15.32,136.44 -8.47,166.39z"/>
  <path class="fil0" d="M4615 846.35l29.55 -0.8 -0.38 -133.33c60.03,35.64 129.38,136.22 171.87,133.12l-0.02 -178.98 -29.07 -1.66 -0.16 136.7 -120.24 -106.9c-21.72,-18.43 -16.12,-29.6 -50.63,-28.94l-0.92 180.79z"/>
  <path class="fil0" d="M2949.57 844.53l164.51 1.75c14.64,-5.33 9.71,2.11 12.16,-15.42 -2.96,-18.32 -21.72,-10.61 -67.71,-10.5 -25.53,0.06 -51.07,-0.02 -76.6,-0.04l-0.33 -55.24 87.58 0.16 0.49 -25.39 -87.66 0.07 -0.14 -49.36 107.15 0.36c28.05,0.12 26.57,0.2 35.59,-6.21 -0.11,-22.76 -2.98,-16.46 -11.41,-18.92l-69.79 -0.63c-28.87,0.01 -65.73,-2.85 -93.31,1.87l-0.53 177.5z"/>
  <path class="fil0" d="M5578.43 847.03l15.11 -0.32c16.17,-18.93 2.65,-96.1 7.45,-139.52 31.65,33.85 87.08,77.2 118.66,108.51 18.44,18.29 22.6,29.33 51.64,31.21l0 -182.16 -28.93 1.58 0.23 135.24 -118.72 -106.89c-16.19,-16.23 -22.04,-28.37 -52.12,-29.81l1.03 170.32c3.55,12.8 -0.91,3.62 5.65,11.84z"/>
  <path class="fil0" d="M4501.3 664.98l-29.9 0.82 -0.6 154.5 -129.94 -0.29 -0.36 -155.21 -30.39 1.22c6.43,195.05 -25.67,180.7 94.04,180.66 88.56,-0.04 111,33.94 97.15,-181.7z"/>
  <path class="fil0" d="M4886.7 669.59c0.07,36.78 -5.75,18.61 79.88,22.46l1.23 154.74 32.41 -0.24 0.21 -154.12c15.54,-1.23 64.99,2.03 74.17,-3.51 9.69,-5.84 4.37,6.72 7.05,-9.41 2.72,-16.36 3.49,-15.46 -47.44,-14.48 -66.33,1.27 -118.05,-3.57 -143.64,3.17 -0.96,0.25 -2.65,0.77 -3.87,1.39z"/>
  <path class="fil1" d="M3249.57 752.09l91.55 0.35c49.52,-4.19 25.21,-56.76 24.83,-57.16 -24.51,-11.73 -85.45,-6.12 -116.13,-4.5l-0.25 61.31z"/>
  <path class="fil1" d="M2426.76 751.71l92.94 0.39c24.28,-2.53 34.93,-7.9 25.84,-58.15 -27.09,-6.96 -85.58,-4.08 -118.86,-3.71l0.08 61.47z"/>
  <path class="fil1" d="M2703.84 751.91l93.03 0.14c28.46,-2.79 35.3,-14.15 25.92,-58.42l-118.61 -4.13 -0.34 62.41z"/>
  <polygon class="fil0" points="5426.14,846.83 5458.43,846.47 5458.3,665.42 5427.33,665.17 "/>
  <polygon class="fil1" points="5186.14,776.93 5275.2,778.31 5232.83,691.32 "/>
  <path class="fil2" d="M946.37 577.52c-14.29,9.49 -82.88,70.9 -92.57,85.21l-29.51 47.96c-10.62,17.62 -17.78,30.32 -26.23,50.52 -72.95,174.41 9.44,180.56 -76.53,228.45 -27.69,15.43 -69.85,38.66 -90.63,58.02 -15.21,27.26 38.22,85.11 23.23,130.73 -8.29,-6.09 -15.6,-54.01 -22.32,-66.3l-6.32 28.76c-12.22,-3.61 -11.05,-14.43 -37.71,-28.98 2.73,11.67 5.67,11.72 6.58,25.5l-21.08 -10.37c15.46,-55.77 27.41,-89.61 7.07,-151.43 -23.45,-71.29 -65.46,-92.73 -73.75,-106.12 -14.14,-3.77 -31.71,-20.9 -70.31,-30.67 -191.18,-48.37 -362.48,138.88 -276.26,364.18 13.41,30.27 24.78,55.04 42.13,80.49 9.02,13.24 15.88,22.35 25.79,35.12 8.13,10.46 19.88,22.69 26.79,34.22 10.52,5.66 13.92,12.07 24.24,21.55 117.24,107.68 330.3,100.84 467.91,15.96 14.26,-8.8 45.83,-34.97 56.29,-37.9 17.56,-20.72 35.03,-32.41 51.61,-49.54 17.06,-17.62 31.35,-39.21 46.91,-56.97 26.32,11.43 60.83,66.21 200.89,98.52 8.46,1.95 30.97,5.64 37.72,8.08l91.06 0.09c6.69,-2.52 33.32,-7.07 42.86,-8.98 15.13,-3.03 26.71,-6.23 41.11,-10.68 69.96,-21.62 139.53,-67.18 184.43,-117.47 61.44,-68.81 114,-168.38 109.8,-292.54 2.27,-51.3 -11.36,-88.99 -22.76,-133.54l-18.86 -100.99c-2.94,-22.01 3.47,-11.72 6.05,-31.33 -3.92,-15.31 -10.84,14.91 -21.55,-53.26 -3.46,-22.01 3.25,-44.73 6.03,-66.87l-13.7 6.8c-10.31,9.68 -25.69,19.43 -38.77,24.17 -5.59,-15.6 -22.77,-71.17 -30.6,-81.15 -12.78,8.04 -39.21,50.54 -54.93,66.17l-9.54 -8.44c-11.75,-15.23 -12.61,-24.98 -27.42,-28.98 -2.53,10.74 -2.07,26.5 -8.81,33.88 -9.97,-4.4 -16.4,-15.63 -16.83,-26.59 13.44,-8.61 57.16,-34.79 62.77,-46.52l-53.1 4.43 25.24 -62.01c-14.8,9.35 -38.11,38.1 -50.56,40.02l-3.4 -37.55 -7.2 9.74c-2.46,4.33 -2.83,6.18 -4.84,10.72 -3.43,7.78 -7,14.09 -10.12,19.68 -10.62,-5.53 -9.13,-9.48 -22.55,-13.74 -0.37,11.12 -0.07,21.53 0.53,32.63 2.72,51 -18.08,25 -103.04,26.18 -75.14,1.05 -108.87,8.72 -176.21,35.73 -22.89,9.18 -52.3,31.1 -69.03,35.41z"/>
  <path class="fil3" d="M946.37 577.52c16.73,-4.31 46.14,-26.23 69.03,-35.41 67.34,-27.01 101.07,-34.68 176.21,-35.73 84.96,-1.18 105.76,24.82 103.04,-26.18 -0.6,-11.1 -0.9,-21.51 -0.53,-32.63 13.42,4.26 11.93,8.21 22.55,13.74 3.12,-5.59 6.69,-11.9 10.12,-19.68 2.01,-4.54 2.38,-6.39 4.84,-10.72l7.2 -9.74 3.4 37.55c12.45,-1.92 35.76,-30.67 50.56,-40.02l-25.24 62.01 53.1 -4.43c-5.61,11.73 -49.33,37.91 -62.77,46.52 0.43,10.96 6.86,22.19 16.83,26.59 6.74,-7.38 6.28,-23.14 8.81,-33.88 14.81,4 15.67,13.75 27.42,28.98l9.54 8.44c15.72,-15.63 42.15,-58.13 54.93,-66.17 7.83,9.98 25.01,65.55 30.6,81.15 13.08,-4.74 28.46,-14.49 38.77,-24.17 -8.87,-6.05 -9.58,-38.46 -11.89,-50.75 -3.55,-18.86 -6.67,-37.39 -10.28,-57.52 -9.1,-50.78 -56.55,-322.83 -62.45,-333.28l-50.47 71.09c-16.9,24.46 -33.2,49.59 -50.75,74.45l-74.5 108.56c-14.44,21.41 -13.95,16.78 -43.43,20.4 -133.9,16.46 -71.04,4.06 -166.11,81.29l-128.53 119.54z"/>
  <path class="fil3" d="M506.6 869.47c8.29,13.39 50.3,34.83 73.75,106.12 20.34,61.82 8.39,95.66 -7.07,151.43l21.08 10.37c-0.91,-13.78 -3.85,-13.83 -6.58,-25.5 26.66,14.55 25.49,25.37 37.71,28.98l6.32 -28.76c6.72,12.29 14.03,60.21 22.32,66.3 14.99,-45.62 -38.44,-103.47 -23.23,-130.73 20.78,-19.36 62.94,-42.59 90.63,-58.02 85.97,-47.89 3.58,-54.04 76.53,-228.45 8.45,-20.2 15.61,-32.9 26.23,-50.52l29.51 -47.96c-14.67,6.44 -91.04,82.24 -110.59,98.4 -14.32,11.83 -100.78,10.68 -125.43,12.32 -21.59,1.43 -28.26,14.98 -40.87,28.72 -22.02,23.99 -47.65,39.75 -70.31,67.3z"/>
  <path class="fil3" d="M201.13 1159.36c16.79,52.34 64.5,96.06 107.77,127.27 46.68,33.68 115.4,55.68 188.31,42.24 73.58,-13.56 194.4,-81.91 229.19,-123.84 7.65,-9.22 20.95,-99.05 -8.23,-107.54l-35.14 -3.45c-0.49,33.66 18.83,80.95 -15.03,98.26 -14.42,7.37 -29.85,9.25 -42.46,15.49 -7.34,3.63 -29.25,20.15 -34.21,24.53l7.55 -30.49 -43.86 0.78c3.4,-2.19 23.57,-16.76 28.38,-20.66 -5.78,-8.55 -19.56,-15.99 -29.58,-21.31 -11.5,5.04 -73.58,84.81 -177.74,49.54 -58.96,-19.96 -99.86,-74.56 -93.39,-151.71 -8.43,15.24 5.59,19.63 -10.99,36.69 -7.84,8.07 -15.33,14.24 -23.78,21.99 -5.69,5.22 -41.18,40.37 -46.79,42.21z"/>
  <path class="fil3" d="M1231.37 1352.6l457.28 -0.04c-1.9,-29.46 -74.81,-421.96 -79.08,-429.63 4.2,124.16 -48.36,223.73 -109.8,292.54 -44.9,50.29 -114.47,95.85 -184.43,117.47 -14.4,4.45 -25.98,7.65 -41.11,10.68 -9.54,1.91 -36.17,6.46 -42.86,8.98z"/>
  <path class="fil3" d="M332.72 1032.19c8.01,24.16 -5.19,45.51 7.1,76.7 25.98,65.93 111.76,75.14 162.89,25 76.37,-74.87 13.8,-207.84 -37.54,-223.79 -11.13,6.81 -24.63,20.28 -33.6,30.57 -3.99,4.57 -88.08,87.73 -98.85,91.52z"/>
  <path class="fil1" d="M201.13 1159.36c5.61,-1.84 41.1,-36.99 46.79,-42.21 8.45,-7.75 15.94,-13.92 23.78,-21.99 16.58,-17.06 2.56,-21.45 10.99,-36.69 -0.87,-38.22 31.79,-54.27 50.03,-26.28 10.77,-3.79 94.86,-86.95 98.85,-91.52 8.97,-10.29 22.47,-23.76 33.6,-30.57 -16.21,-21.69 -81.24,-29.39 -115.71,-24.16 -43.21,6.55 -73.35,25.42 -98.17,48.37 -54.94,50.8 -74.53,128.39 -50.16,225.05z"/>
  <path class="fil3" d="M824.69 730.31c10.27,7.64 35.88,21.71 46.5,25.05 30.58,-16.19 55.28,-59.06 175.39,-91.31 24,-6.44 51.56,-9.13 71.3,-19.9l-34.24 -114.28c-18.38,0.03 -67.75,20.88 -82.25,28.39 -47.58,24.63 -96.4,61.21 -129.89,102.11 -10.19,12.43 -42.16,51.44 -46.81,69.94z"/>
  <path class="fil3" d="M938.85 1013.71c13.24,1.08 135.64,-1.95 136.87,-2.52 5.91,-11.94 5.18,-47.59 9,-64.63 4.85,-21.62 12.21,-36.08 18.99,-54.51 -10.71,-8.26 -28.22,-19.45 -45.24,-22.72 -7.53,11.36 -21.21,16.43 -41.45,49.53 -12.93,21.16 -20.2,41.78 -26.87,68.07 -29.28,-35.89 -20.64,-148.54 42.62,-210.9 34.72,-34.23 84.78,-60.36 134.08,-76.6 8.58,-2.83 19.08,-6.16 27.93,-8.54l21.79 -6.1c4.13,-1.87 3.97,-1.98 6.2,-3.66 -81.82,0.88 -179.57,49.01 -218.12,91.13 -58.56,64 -73.81,125.54 -65.8,241.45z"/>
  <path class="fil3" d="M254.74 1352.81c-6.91,-11.53 -18.66,-23.76 -26.79,-34.22 -9.91,-12.77 -16.77,-21.88 -25.79,-35.12 -17.35,-25.45 -28.72,-50.22 -42.13,-80.49 -8.12,4.59 -150.31,140.74 -155.98,149.8l250.69 0.03z"/>
  <path class="fil4" d="M1420.48 564.95c-11.05,-6.37 -20.12,-24.56 -30.51,-33.22 -6.61,13.32 -15.05,75.47 -15.15,94.17l157.62 25.04 16.29 -97.87 -45.29 27.43c-11.82,-21.68 -16.31,-61.04 -31.08,-78.47 -19.1,18.17 -32.73,44.17 -51.88,62.92z"/>
  <path class="fil3" d="M1003.56 1300.97c70.28,41.66 234.39,58.32 291.41,27.46l1.02 -24.28c-95.73,1.66 -143.34,-6.05 -220.45,-51.91 -8.08,-4.81 -16.35,-11.31 -24.3,-15.23 -7.23,5.91 -46.52,51.32 -47.68,63.96z"/>
  <path class="fil3" d="M803.18 1352.42l337.13 0.09c-6.75,-2.44 -29.26,-6.13 -37.72,-8.08 -140.06,-32.31 -174.57,-87.09 -200.89,-98.52 -15.56,17.76 -29.85,39.35 -46.91,56.97 -16.58,17.13 -34.05,28.82 -51.61,49.54z"/>
  <path class="fil3" d="M1097.11 1191.11c5.29,5.97 13.81,8.01 19.79,12.21l-48.11 10.54c2.79,38.3 53.34,55.42 88.36,66.63 46.49,14.87 87.08,17.42 138.37,14.14l0.19 -31.53c-1.85,-6.23 -36.62,-11.09 -50.31,-16.39 -47.52,-18.38 -72.18,-36.83 -104.01,-72.42l-10.81 -9.01c-10.19,4.23 -26.21,18.92 -33.47,25.83z"/>
  <path class="fil5" d="M1396.84 855.41c5.7,-2.73 5.85,2.92 4.92,-3.05l3.47 11.78c41.88,1.42 14.44,-0.32 45.57,6.7 15.89,3.58 14.02,1.66 24.55,10.88l6.44 4.71c6.35,-6.87 11.24,-16.16 16.27,-23.65 7.7,-11.45 12.78,-13.24 19.48,-22.09 -5.84,-16.8 -47.65,-43.86 -67.52,-54.31 -39.73,-20.9 -31.68,0.19 -98.57,-24.16 -1.41,23.7 1.92,79.14 11.53,98.57 5.46,-1.89 10.35,-3.96 16.81,-6.44 17.32,-6.64 14.64,-1.68 17.05,1.06z"/>
  <path class="fil6" d="M1194.65 1127.86c-3.85,6.16 -1.12,3.28 -5.15,7.11 19.27,1.73 12.72,8.05 20.8,19.23 3.67,5.07 4.05,3.73 7.72,7.44 15.62,15.78 -12.24,-13.49 2.95,3.24l27.61 27.23c17.21,14.51 11.42,14.51 34.34,26.47 13.68,7.13 3.14,-0.71 13.73,17.02l5.03 6.79c5.02,-24.91 26.5,-67.66 43.26,-76.97 -6.79,-18.75 -11.24,-12.04 -23.53,-33.58 -7.76,-13.63 -9.72,-25.07 -16.89,-38.68 -26.18,0.65 -95.04,22.61 -109.87,34.7z"/>
  <path class="fil7" d="M1270.95 892.14c18.66,-7.27 58.77,-48.9 62.25,-56.58l-3.41 37.46 23.49 -7.94c-0.42,-14.51 -6.42,-34.33 -8.32,-49.47 -2.53,-20.18 -1.86,-36.46 -2.74,-55.98 -13.5,-3.6 -52.55,0.08 -64.33,5.25 -12.38,5.45 -25.01,26.64 -33.54,39.55 -13.9,21.06 -22.07,24.7 -6.02,46.86 10.16,14.04 19.1,28.59 32.62,40.85z"/>
  <path class="fil7" d="M1208.27 1109.56c-9.29,-11.3 -1.41,2.94 -1.07,-5.15 0.47,-11.11 5.24,4.93 1.81,-6.37 -2.65,-8.72 -4.04,0.85 -12.12,-5.36 2.17,-2.91 4.3,-2.25 -2.01,-20.97 -7.91,-23.48 -3.02,-21.3 -4.55,-46.49l20.61 -0.41c-12.34,-11.44 -98.2,-4.42 -120.4,-4.04 2.81,11.47 4.94,5.52 6.23,15.41 2.98,22.78 -14.28,-2.71 4.86,52.94 7.92,23.02 17.6,45.4 32,59.69l74.64 -39.25z"/>
  <path class="fil3" d="M907.7 1237.18c19.58,12.3 57.96,51.53 85.55,56.58 9.33,-9.49 16.51,-22.47 24.49,-32.46 6.93,-8.67 19.58,-21.22 23.98,-33.36 -5.38,-4.32 -9.57,-9.17 -17.95,-11.76l-7.43 29.39c-7.05,-12.22 -6.18,-22.64 -12.19,-34.7 -4.65,-9.34 -13.83,-19.46 -20.02,-28.82 -9.6,-14.52 -4.74,-19.42 -14.32,-34.57l-18.76 -29.06c-5.89,23.05 -9.06,40.34 -17.75,61.92 -6.47,16.09 -22.2,43.48 -25.6,56.84z"/>
  <path class="fil3" d="M1189.64 578.69c-1.2,21.14 28.84,40.77 29.44,40.93 9.22,0.41 105.46,2.92 105.63,2.88 1.45,-0.35 30.17,-16.01 36.13,-19.22 14.82,-7.98 12.41,-21.86 14.59,-41.76 -62.66,-12.01 -11.96,-21.73 -89.8,-2.67 -25.47,6.23 -80.45,8.73 -95.99,19.84z"/>
  <path class="fil8" d="M1554.76 1111.89c42.77,-52.03 -12.64,-168.2 -79,-173.78 -6.52,66.31 33.75,146.5 79,173.78z"/>
  <path class="fil7" d="M1171.09 1010.97l0.96 -9.06c2.74,-1.25 5.29,-1.84 9.26,-3.52 10.82,-4.58 -0.5,-1.45 11.06,-4.85 -4.72,-27.03 2.99,-31.01 12.15,-40.46 -15.9,-10.09 -12.26,-0.48 -9.13,-5.61 -12.62,-9.82 -29.81,-13.48 -41.81,-23.52 -11.93,-9.98 -20.56,-22.23 -42.31,-26.93 -7.19,34.77 -23.3,32.12 -24.04,114.43l83.86 -0.48z"/>
  <path class="fil9" d="M1360.3 1163.21c61.46,46.42 159.28,29.4 184.94,-33.32 -32.45,-9.28 -70.16,-11.82 -105.74,-5.02 -30.5,5.84 -65.63,19.82 -79.2,38.34z"/>
  <path class="fil6" d="M1477.75 929.48c19.72,5.18 40.32,16.46 53.72,28.78 4.26,3.92 9.74,8.97 13.68,13.5 29.05,33.46 25.9,57.15 33.48,75.37 20.22,-64.29 -22.1,-179.08 -54.39,-198.78 -16.66,9.75 -41.98,48.75 -46.49,81.13z"/>
  <path class="fil6" d="M1311.86 1252.79c44.13,1.74 77.2,-1.88 114.54,-16.33 27.26,-10.55 65.26,-33.16 79,-51.38 -32.51,7.97 -40.2,18.53 -83.48,13.64 -38.22,-4.32 -48.58,-21.86 -72.9,-29.68 -13.92,23.84 -35.63,40.98 -37.16,83.75z"/>
  <path class="fil7" d="M1301.68 1242.39l-5.03 -6.79c-10.59,-17.73 -0.05,-9.89 -13.73,-17.02 -22.92,-11.96 -17.13,-11.96 -34.34,-26.47l-27.61 -27.23c-15.19,-16.73 12.67,12.54 -2.95,-3.24 -3.67,-3.71 -4.05,-2.37 -7.72,-7.44 -8.08,-11.18 -1.53,-17.5 -20.8,-19.23 4.03,-3.83 1.3,-0.95 5.15,-7.11 -13.95,4.39 -46.79,20.25 -52.81,32.73 10.97,18.42 43.11,43.49 65.14,58.02 23.77,15.68 58.8,28.31 91.44,32.79l3.26 -9.01z"/>
  <path class="fil3" d="M1004.41 1158.21l38.94 -26.05 -5.41 26.25c17.87,-4.05 19.68,-12.14 39.03,-14.76 -2.96,15.79 -4.84,8.23 -9.03,24.45l33.33 -6.61 -23.36 25.92c11.38,-0.5 37.62,-22.92 45.54,-29.87 -1.8,-12.28 -16.1,-30.07 -23.1,-46.03 -6.68,-15.22 -10.22,-37.2 -18.6,-51.38 -6.02,2.35 -78.91,60.76 -77.34,98.08z"/>
  <path class="fil10" d="M1171.09 1010.97c47.94,0.68 87.08,10.78 133.43,17.25 6.39,-10.2 8.34,-15.08 10.31,-28.04 -26.94,-6.76 -89.36,-54.09 -119.44,-52.71 -3.13,5.13 -6.77,-4.48 9.13,5.61 -9.16,9.45 -16.87,13.43 -12.15,40.46 -11.56,3.4 -0.24,0.27 -11.06,4.85 -3.97,1.68 -6.52,2.27 -9.26,3.52l-0.96 9.06z"/>
  <path class="fil11" d="M1392.69 939.72c4.32,17.43 25.54,49.74 37.16,64.94l31.48 35.82c19.08,20.48 32.29,28.98 52.49,45.7 -29.28,-47.39 -49.47,-76.03 -47.33,-151.24 -36.99,-4.38 -40.37,-1.49 -73.8,4.78z"/>
  <path class="fil12" d="M1350.3 1154.23c10.97,-3.38 17.37,-10.75 28.53,-16.85 37.13,-20.31 69.98,-23.89 112.55,-25.48 -25.32,-19.44 -137.03,-27.32 -176.21,-20.05 2.09,23.76 21.51,50.15 35.13,62.38z"/>
  <path class="fil9" d="M1396.84 855.41c-7.56,3.7 -11.65,10.24 -17.83,16.61 -10.3,10.61 -11.27,8.58 -6.5,25.45l44.82 4.44c-5.4,1.3 -12.87,2.7 -18.91,3.85l-19.91 7.65 7.8 18.77c25.19,-1.2 23.29,-12.7 83.07,-6.25l12.41 -39.5 -6.44 -4.71c-10.53,-9.22 -8.66,-7.3 -24.55,-10.88 -31.13,-7.02 -3.69,-5.28 -45.57,-6.7l-3.47 -11.78c0.93,5.97 0.78,0.32 -4.92,3.05z"/>
  <path class="fil3" d="M773.45 908.37c8.92,-10.31 15.94,-51.12 62.66,-112.47 9.73,-12.78 20.84,-20.25 26.37,-32.02l-42.58 -24.74c-24.3,27.31 -46.37,125.57 -46.45,169.23z"/>
  <path class="fil7" d="M1449.43 773.03l39.37 26.39c13.13,9.71 25.23,19.31 34.24,32.39 10.24,-4.12 21.82,-13.7 30.63,-22.16 -5.51,-22.07 -30.46,-49.21 -43.13,-68.46l-61.11 31.84z"/>
  <path class="fil6" d="M1208.27 1109.56l54.67 -18.53c-2.25,-3.52 -12.07,-0.07 3.75,-6.21l-13.65 -0.33c6.68,-16.65 -2.83,-4.93 -3.09,-27.09 -0.14,-11.37 4.1,-16.3 -5.18,-23.99 6.42,-3.76 -8.41,-3.78 9.87,-3.51 -9.94,-6.3 -30.78,-6.29 -43.7,-5.09l-20.61 0.41c1.53,25.19 -3.36,23.01 4.55,46.49 6.31,18.72 4.18,18.06 2.01,20.97 8.08,6.21 9.47,-3.36 12.12,5.36 3.43,11.3 -1.34,-4.74 -1.81,6.37 -0.34,8.09 -8.22,-6.15 1.07,5.15z"/>
  <path class="fil13" d="M1347.31 975.24c13.82,8.11 19.28,17.47 32.6,27.61 33.91,25.82 71.15,59.71 110,77.91 -25.64,-22.54 -91.18,-93.19 -105.02,-134.54 -14.02,6.56 -31.51,13.5 -37.58,29.02z"/>
  <path class="fil14" d="M1311.1 1080.68c22.19,3.08 58.01,-1.51 85.11,1.19 28.42,2.83 50.58,8.14 77.54,12.24l-16.85 -9.77c-32.3,-13.55 -117,-45.68 -144.34,-43.95l-1.46 40.29z"/>
  <path class="fil3" d="M1093.6 525.64c1.92,14.16 27.42,101.95 33.93,111.49 13.01,-12.88 -16.72,-62.33 8.33,-87.86 19.91,-20.29 48.93,-21.43 74.67,-32.57 -18.59,-9.05 -96.92,4.7 -116.93,8.94z"/>
  <path class="fil8" d="M1233.26 946.16c11.37,11.27 79.37,46.55 88.61,48.81l12.55 -25.46c-11.89,-8.16 -31.97,-31.4 -41.51,-35.45 -19.72,-8.37 -37.63,8.76 -59.65,12.1z"/>
  <path class="fil8" d="M1262.94 1091.03l39.77 -6.73 0.28 -45.78c-12.49,-7.06 -32.55,-9.43 -48.35,-8.62 -18.28,-0.27 -3.45,-0.25 -9.87,3.51 9.28,7.69 5.04,12.62 5.18,23.99 0.26,22.16 9.77,10.44 3.09,27.09l13.65 0.33c-15.82,6.14 -6,2.69 -3.75,6.21z"/>
  <path class="fil3" d="M1515.53 730.02l48.38 73.68 15.32 -8.09c-6.15,-18.6 -31.19,-77.06 -42.78,-85.46l-20.92 19.87z"/>
  <path class="fil5" d="M1262.23 899.34c-3.79,-9.12 -13.08,-19.42 -19.65,-27.73 -7.42,-9.38 -12.12,-17.84 -20.81,-25.11 -16.84,38.31 -4,77.76 40.46,52.84z"/>
  <path class="fil15" d="M3581.06 1089.84l4.47 73.77c34.86,10.48 177.84,12.56 191.36,2.21 20.7,-34.55 16.63,-128.78 5.3,-170.46 -234.33,-24.27 -201.15,9.58 -201.13,94.48z"/>
  <path class="fil15" d="M4247.53 1163.35c33.2,11.02 93.11,8.33 132.27,8.22 81.42,-0.12 69.23,-11.03 69.18,-88.23 -0.08,-98.76 19.93,-92.6 -134.5,-92.65 -55.32,-0.02 -72.76,-5.76 -73.61,52.92 -0.57,39.22 -3.44,85.66 6.66,119.74z"/>
  <polygon class="fil16" points="4271.84,1145 4418.72,1144.6 4418.48,1017.22 4271.65,1016.02 "/>
  <polygon class="fil16" points="3612.53,1145.11 3758.67,1144.72 3758.51,1017.29 3612.66,1015.98 "/>
  <path class="fil15" d="M4613.48 996.79c-12.31,36.07 -11.35,130.1 -1.35,167.85 42.61,11.21 146.19,11.55 188.07,-0.43l7.84 -94.86 -99.39 5.17c-1.46,0.46 -3.74,1.28 -5.43,2.26 10.92,27.86 -12.11,12.42 28.81,17.87 6.64,0.88 30.97,-0.76 41.49,-0.1l1.33 49.08 -135.76 0.83 -2.47 -126.4c21.3,-2.3 112.64,-7.01 130.78,2.83 22.67,12.28 3.33,18.6 30.48,17.57 9.09,-12.49 8.14,16.77 6.77,-20.67 -1.86,-51.05 -185.54,-22.34 -191.17,-21z"/>
  <path class="fil15" d="M5478.28 1083.6c30.41,20.95 98.98,7.43 138.97,9.66l0.34 50.53 -127.27 0.59c-10.15,-26.32 8.24,-26.51 -17.15,-25.46 -23.32,0.95 -18.19,23.55 -10.53,36.32 14.29,23.79 166.81,29.5 181,-3.79 6.04,-14.18 6.99,-64.69 -7.04,-77.87 -14.21,-13.34 -115.1,-8.96 -143.88,-9.28l-0.38 -46.79 115.56 -1.32c8.97,9.79 6.87,18.74 17.52,24.66 18.39,-7.58 17.51,1.08 17.52,-22.97 0,-16.07 -6.82,-20.75 -22.61,-25.15 -0.3,-0.08 -136.49,-16.45 -151.98,16.88 -6.31,13.56 -10.68,54.67 9.93,73.99z"/>
  <path class="fil15" d="M2544.7 1162.38c27.46,18.87 133.26,11.25 164.87,1.89 8.1,-36.5 20.94,-57.71 -21.67,-61.9l-5.04 26.12c-0.68,1.92 -1.58,3.75 -2.3,5.51l-119.18 11 0.26 -128.85 113.19 0.14c9.45,11.45 10.93,32.55 13.07,38.44l21.83 -1.76c10.9,-24.88 4.97,-33.6 -1.67,-55.41 -27.05,-7.59 -147.42,-17.45 -167.76,3.46 -14.7,15.12 -11.69,131.48 -6.66,145.39 9.32,25.73 0.92,6.36 11.06,15.97z"/>
  <path class="fil15" d="M2877.34 1171.64c22.53,-9.55 17.99,21.81 15.94,-79.47l139 -2.71c-0.78,99.61 -7.42,71.83 14.9,82.22 25.27,-10.51 16.41,24.48 16.32,-88.37 -0.02,-17.41 1.07,-36.04 0.94,-52.95 -0.13,-16.03 2.27,-39.93 -17.26,-39.54 -23.89,0.47 -13.68,0.51 -15.48,71.3l-138 1.06c-0.21,-21.73 6.42,-56.3 -7.54,-68.28 -37.74,-32.39 -23.52,63.26 -24.59,114.61 -0.09,4.34 -1.05,31.71 -0.85,33.44 4.49,39.7 -9.18,17.55 16.62,28.69z"/>
  <path class="fil15" d="M2220.24 1170.21c29.25,2.02 161.53,8.45 173.89,-8.51 -6.2,-18.98 21.36,-18.37 -65.46,-16.98 -25.19,0.41 -50.32,-0.06 -75.54,0.53l-3.08 -56.14c15.72,0.07 31.56,0.89 46.44,0.89 39.79,-0.03 35.94,-3.8 41.82,-13.22 -14.83,-22.1 -18.8,-11.54 -87.65,-11.93l-0.36 -49.75c25.82,0.65 131.27,9.63 142.6,-10.18 -8.39,-21.94 2.37,-14.79 -77.33,-14.27 -31.62,0.2 -64.74,-2.63 -95.65,2.38l0.32 177.18z"/>
  <path class="fil15" d="M3236.62 1171.78c16.92,-7.06 18.47,4.83 17,-62.28 -0.56,-25.25 -0.31,-50.64 -0.75,-75.93l117.46 105.57c16.89,17.96 22.45,29.05 49.2,30.35l4.41 -152.37c-1.73,-29.99 3.92,-24.59 -24.01,-25.36 -14.27,32.19 -4.85,92.69 -5.11,131.52 -61.04,-38.95 -125.47,-133.76 -169.61,-130.47 -0.7,30.15 -0.33,60.33 -0.4,90.5 -0.07,39.38 -7.31,75.31 11.81,88.47z"/>
  <path class="fil15" d="M5151.66 1169.66l175.14 -7.96c-7.86,-24.56 14.65,-12.06 -25.2,-17.63l-115.71 0.95 -3.23 -55.11c45.51,-1.5 76.22,7.49 87.41,-13.13 -10.75,-17.79 -0.04,-11.44 -33.78,-12.62 -17.01,-0.6 -35.21,0.78 -53.27,0.07l0.22 -47.51c30.72,-2.18 129.24,12.68 142.14,-11.8 -7.49,-20.6 2.87,-13.16 -30.19,-15.01l-142.92 2.29 -0.61 177.46z"/>
  <path class="fil15" d="M1906.93 1011.45c19.81,10.41 57,4.81 81.73,4.8l0.21 155.53 28.25 -1.23 2.5 -154.85c63.86,1.59 69.14,9.06 82.31,-10.78 -4.55,-9.39 3.49,-14.95 -40.64,-14.87l-118.82 0.03c-35.65,0.11 -33.57,-6.14 -35.54,21.37z"/>
  <path class="fil15" d="M3947.47 1170.46c30.9,1.95 61.66,1.09 92.66,1.24 13.17,0.06 34.75,1.49 46.67,0.72 31.41,-2 26.95,2.9 27.61,-23.79l-135.06 -4.07c-0.14,-40.52 9.16,-120.2 -4.56,-152.87l-19.59 -0.94c-4.55,7.7 -3.37,2.22 -5.76,15.05l-1.97 164.66z"/>
  <path class="fil15" d="M4967.72 1172.22c32.94,-4.55 22.79,9.55 22.76,-82.38 -0.02,-30.37 5.58,-71.43 -3.16,-97.81l-26.41 -1.99c-0.83,28.56 -7.77,156.62 6.81,182.18z"/>
 </g>
</svg>
