<?xml version="1.0" standalone="no"?>
<!DOCTYPE svg PUBLIC "-//W3C//DTD SVG 20010904//EN"
 "http://www.w3.org/TR/2001/REC-SVG-20010904/DTD/svg10.dtd">
<svg version="1.0" xmlns="http://www.w3.org/2000/svg"
 width="2048.000000pt" height="468.000000pt" viewBox="0 0 2048.000000 468.000000"
 preserveAspectRatio="xMidYMid meet">

<g transform="translate(0.000000,468.000000) scale(0.100000,-0.100000)"
fill="#000000" stroke="none">
<path d="M4933 4527 c-49 -72 -136 -199 -193 -282 -57 -82 -135 -197 -174
-255 -39 -58 -73 -107 -76 -110 -3 -3 -26 -37 -52 -76 l-48 -71 -132 -17 c-73
-9 -170 -22 -214 -29 l-81 -13 -109 -99 c-60 -55 -111 -102 -114 -105 -5 -5
-165 -152 -360 -329 -57 -53 -139 -127 -180 -166 -177 -163 -301 -276 -390
-356 -52 -46 -133 -121 -180 -165 l-85 -82 -85 -6 c-47 -3 -150 -8 -230 -12
l-146 -6 -169 -164 c-93 -90 -172 -164 -176 -164 -4 0 -33 15 -66 33 -120 68
-236 97 -385 97 -206 -1 -391 -72 -543 -212 -251 -230 -339 -575 -240 -938 15
-52 29 -104 31 -115 4 -16 -15 -41 -87 -110 -200 -193 -336 -323 -384 -368
l-50 -47 430 0 429 0 46 -44 c156 -150 360 -250 610 -297 100 -20 387 -17 495
5 286 56 463 133 681 298 l51 38 1526 0 c840 0 1527 3 1527 8 0 7 -13 76 -44
247 -8 44 -28 159 -45 255 -27 153 -72 397 -102 555 -45 238 -80 438 -93 533
-9 62 -24 147 -35 190 -10 42 -24 106 -30 142 -6 36 -25 138 -42 228 -28 151
-29 165 -15 187 22 34 20 50 -9 74 -39 30 -61 166 -45 276 7 44 14 89 17 100
5 19 5 19 -22 1 -15 -10 -31 -14 -35 -9 -4 4 -12 37 -18 73 -19 118 -95 538
-127 705 -8 39 -18 97 -24 130 -6 33 -27 143 -45 245 -19 102 -40 222 -46 268
-7 45 -16 84 -20 87 -4 3 -48 -55 -97 -128z m-165 -2234 c-10 -2 -26 -2 -35 0
-10 3 -2 5 17 5 19 0 27 -2 18 -5z m79 1 c-3 -3 -12 -4 -19 -1 -8 3 -5 6 6 6
11 1 17 -2 13 -5z m-164 -64 c3 8 8 24 10 35 4 16 5 15 6 -5 l1 -25 130 3
c112 3 130 1 130 -12 0 -12 10 -16 38 -16 22 0 61 -12 94 -29 55 -29 57 -29
60 -9 3 19 6 17 42 -16 l39 -36 -21 -19 c-47 -40 -109 -151 -132 -235 l-13
-48 -66 5 c-41 3 -55 2 -36 -3 17 -4 45 -8 63 -9 l32 -1 2 -77 2 -78 3 73 c4
70 5 73 26 67 88 -25 177 -92 241 -179 57 -78 89 -209 75 -310 -8 -60 -37
-136 -52 -136 -5 0 -42 33 -81 74 -55 56 -85 99 -125 177 -29 57 -50 93 -46
79 18 -62 105 -210 152 -258 68 -68 -37 3 -133 91 -35 32 -64 56 -64 52 0 -9
15 -23 111 -106 46 -39 86 -74 89 -77 9 -9 -45 21 -106 60 -34 21 -72 38 -85
38 -15 0 -20 3 -12 8 9 5 3 14 -20 26 l-32 18 25 -21 c27 -22 21 -28 -12 -10
-15 8 -19 8 -14 0 4 -6 1 -11 -6 -11 -9 0 -9 -3 2 -10 8 -5 23 -7 34 -4 10 4
16 2 13 -3 -3 -5 18 -19 46 -32 79 -36 177 -84 174 -87 -1 -1 -40 11 -87 26
-47 15 -101 31 -120 34 -19 3 1 -6 45 -20 131 -41 131 -42 5 -45 l-115 -2 135
-7 c136 -7 200 -22 200 -44 0 -16 -37 -65 -75 -100 -16 -15 -66 -46 -112 -68
-79 -39 -88 -41 -176 -42 -65 0 -108 5 -147 18 -58 20 -150 72 -150 85 0 11
85 71 102 72 9 0 9 2 1 5 -7 3 -38 -11 -69 -31 -31 -20 -60 -32 -63 -27 -3 5
-19 26 -36 46 -16 20 -43 60 -58 89 -15 29 -25 41 -21 27 10 -37 45 -103 63
-120 58 -54 58 -53 2 -122 -28 -34 -56 -79 -63 -98 -6 -19 -20 -53 -30 -75
-15 -30 -18 -34 -15 -14 2 15 -1 26 -7 26 -36 -1 -76 17 -76 34 0 11 -5 19
-11 19 -11 0 -55 32 -90 65 -9 8 -23 15 -32 15 -8 0 -19 10 -23 23 -4 12 -17
32 -30 44 -13 12 -24 26 -24 31 0 5 -7 15 -15 22 -8 7 -15 23 -15 35 0 18 -4
21 -25 17 -33 -6 -32 4 3 23 l27 16 -35 -6 -35 -6 34 21 c80 51 294 120 369
120 16 0 18 5 13 28 -5 24 -6 24 -9 5 -2 -17 -12 -23 -45 -28 -112 -18 -336
-84 -365 -107 -22 -19 -25 -1 -3 21 25 25 26 31 6 31 -9 0 -15 6 -14 13 1 6 1
31 0 55 -1 30 -5 42 -16 42 -11 0 -15 11 -15 40 0 22 -4 40 -10 40 -5 0 -10
18 -10 39 0 22 -5 42 -12 44 -7 3 1 6 17 8 l30 2 -35 7 c-30 6 -27 7 25 8 40
0 53 -2 40 -8 -12 -5 4 -6 40 -3 33 3 111 -2 174 -11 62 -10 115 -15 117 -13
9 8 -272 46 -355 48 -51 2 -53 2 -21 9 25 5 28 8 11 9 -17 1 -21 5 -17 17 3 9
6 31 6 50 0 24 5 34 15 34 11 0 15 12 15 45 0 25 -5 45 -11 45 -6 0 -5 5 3 13
29 29 114 6 268 -72 80 -40 149 -77 155 -82 5 -5 14 -9 19 -9 19 0 -9 19 -109
71 -55 28 -115 62 -134 75 l-34 23 44 11 c24 7 60 20 79 30 62 31 105 17 182
-58 66 -64 67 -66 51 -86 -17 -20 -17 -21 2 -4 18 17 20 17 50 -10 l30 -27
-28 31 c-25 27 -26 32 -12 44 8 7 15 17 15 22 0 6 -8 1 -17 -11 l-18 -22 -65
66 c-61 61 -63 65 -36 63 21 -2 32 -12 47 -40 11 -21 23 -38 28 -38 5 0 12 20
15 45 4 25 10 45 13 45 3 0 24 -13 48 -29 57 -38 85 -47 85 -27 0 23 15 20 34
-6 l17 -23 -12 24 c-15 31 -5 39 72 55 35 8 52 15 38 15 -14 1 -48 -6 -75 -14
-27 -8 -50 -15 -51 -15 -4 0 -33 71 -33 80 0 5 32 14 70 21 39 7 68 15 65 18
-3 3 -40 8 -83 11 -102 7 -105 22 -22 108 33 34 60 64 60 67 0 10 -28 4 -87
-19 l-61 -24 -11 44 c-6 23 -10 76 -10 116 1 57 3 65 9 38 4 -22 9 -30 13 -20z
m-59 -8 c8 -15 19 -56 26 -91 6 -34 13 -68 16 -75 3 -9 -9 -17 -36 -24 l-40
-10 6 64 c7 68 -2 81 -29 42 -31 -47 -181 -188 -199 -188 -5 0 -8 6 -8 13 0 7
-11 23 -25 35 -20 17 -24 29 -20 52 3 17 1 30 -3 30 -5 0 -14 12 -21 28 l-11
27 20 -24 c15 -17 26 -22 45 -17 14 4 23 11 20 16 -3 4 19 20 50 34 30 13 64
34 77 45 12 12 32 21 44 21 13 0 24 7 27 18 3 9 3 0 2 -21 -2 -20 1 -34 6 -31
5 3 9 12 9 21 0 9 6 13 15 10 11 -5 12 -1 5 17 -7 21 -5 36 6 36 2 0 10 -13
18 -28z m471 -2 c-3 -5 -12 -10 -18 -10 -7 0 -6 4 3 10 19 12 23 12 15 0z m50
-18 c-3 -3 -11 0 -18 7 -9 10 -8 11 6 5 10 -3 15 -9 12 -12z m150 -83 c11 -16
1 -19 -13 -3 -7 8 -8 14 -3 14 5 0 13 -5 16 -11z m27 -111 c31 -47 59 -98 62
-113 3 -15 9 -32 15 -39 5 -6 12 -23 15 -36 3 -14 13 -45 22 -70 23 -63 30
-245 13 -340 l-13 -75 -8 60 c-26 193 -124 326 -290 395 -32 13 -58 27 -58 32
0 66 139 286 175 275 5 -2 36 -42 67 -89z m28 82 c0 -5 -2 -10 -4 -10 -3 0 -8
5 -11 10 -3 6 -1 10 4 10 6 0 11 -4 11 -10z m-1135 -30 c-4 -12 -9 -19 -12
-17 -3 3 -2 15 2 27 4 12 9 19 12 17 3 -3 2 -15 -2 -27z m1105 20 c0 -5 6 -10
14 -10 7 0 19 -6 25 -14 10 -12 9 -13 -8 -9 -23 6 -60 43 -43 43 7 0 12 -4 12
-10z m-1067 -33 c7 3 9 3 6 -1 -4 -4 9 -23 29 -42 19 -19 31 -34 27 -34 -4 0
2 -9 14 -19 l23 -20 -31 -15 c-38 -20 -70 -20 -98 -1 -25 18 -37 60 -23 83 8
13 9 11 4 -10 -5 -21 -2 -28 9 -28 9 0 17 11 19 26 l3 26 30 -23 c24 -18 27
-19 15 -4 -8 10 -23 27 -32 37 -10 10 -18 24 -17 31 0 9 2 9 6 -1 2 -6 10 -9
16 -5z m51 -2 c3 -8 1 -15 -4 -15 -6 0 -10 7 -10 15 0 8 2 15 4 15 2 0 6 -7
10 -15z m1054 -30 c-3 -3 -9 2 -12 12 -6 14 -5 15 5 6 7 -7 10 -15 7 -18z m32
-35 c0 -8 8 -20 18 -27 11 -6 25 -33 32 -59 8 -26 15 -43 17 -37 2 6 -3 30
-11 54 -11 32 -12 45 -4 51 21 12 30 -3 23 -40 -4 -24 -2 -37 7 -43 10 -6 14
-49 17 -166 1 -87 1 -156 -3 -153 -3 3 -10 48 -16 99 -7 51 -20 118 -31 149
-10 30 -17 58 -14 60 3 3 -1 12 -9 21 -16 17 -46 97 -46 121 0 13 1 13 10 0 5
-8 10 -22 10 -30z m30 9 c0 -11 -4 -17 -10 -14 -5 3 -10 15 -10 26 0 11 5 17
10 14 6 -3 10 -15 10 -26z m-3998 -30 c49 -11 178 -62 178 -72 0 -4 -157 -158
-314 -308 -55 -52 -106 -102 -114 -111 -14 -16 -17 -15 -45 8 -19 16 -41 24
-65 24 -68 -1 -90 -35 -98 -152 l-6 -83 -132 -127 c-72 -70 -134 -124 -138
-120 -16 17 -38 171 -38 270 0 168 35 283 130 422 77 113 223 211 365 246 64
16 209 17 277 3z m3278 -19 c0 -5 -5 -10 -11 -10 -5 0 -7 5 -4 10 3 6 8 10 11
10 2 0 4 -4 4 -10z m808 -96 c-3 -27 -4 -26 -9 8 -3 22 -1 34 4 29 5 -5 7 -21
5 -37z m-764 -15 c16 -38 14 -59 -3 -59 -13 0 -62 80 -56 90 15 24 43 9 59
-31z m773 -156 c-2 -21 -4 -4 -4 37 0 41 2 58 4 38 2 -21 2 -55 0 -75z m-10
-105 c-3 -8 -6 -5 -6 6 -1 11 2 17 5 13 3 -3 4 -12 1 -19z m-693 -655 c37 -13
80 -18 156 -18 91 1 114 4 170 27 35 15 65 26 66 25 11 -11 -98 -97 -167 -134
-31 -17 -67 -37 -80 -46 -12 -9 -26 -14 -31 -11 -13 8 -49 -6 -43 -17 4 -5 -5
-5 -20 1 -33 13 -44 13 -25 0 11 -7 -6 -10 -55 -11 -70 -2 -70 -2 -20 -9 28
-4 43 -8 34 -8 -9 -1 -38 -5 -64 -9 -35 -4 -46 -3 -41 5 5 8 -4 12 -26 13
l-33 1 30 8 c19 5 6 6 -35 3 -36 -3 -69 -9 -75 -13 -5 -4 -19 -4 -30 1 -17 7
-17 8 8 8 22 1 27 5 26 24 -1 16 -2 18 -6 5 -2 -10 -11 -18 -19 -18 -13 0 -13
3 0 22 21 29 21 48 0 22 -14 -18 -15 -18 -9 6 10 35 62 127 97 171 l29 37 56
-34 c31 -18 79 -41 107 -51z m272 -136 c-10 -7 -35 -27 -55 -44 -20 -18 -43
-33 -50 -33 -9 0 -11 3 -5 9 18 16 116 81 123 80 3 0 -2 -6 -13 -12z m-101
-30 c-11 -6 -22 -12 -25 -12 -3 0 -21 -12 -41 -28 -20 -15 -42 -27 -50 -27 -8
0 -3 6 10 13 13 6 23 16 22 21 -2 6 17 18 41 27 50 21 72 24 43 6z m-100 -37
c-3 -5 -12 -10 -18 -10 -7 0 -6 4 3 10 19 12 23 12 15 0z m-218 -16 c-3 -3
-12 -4 -19 -1 -8 3 -5 6 6 6 11 1 17 -2 13 -5z m123 -24 c-8 -6 -22 -10 -30
-10 -8 0 -4 6 10 13 27 15 44 12 20 -3z m15 -20 c-3 -5 -12 -10 -18 -10 -7 0
-6 4 3 10 19 12 23 12 15 0z"/>
<path d="M5190 2133 c0 -13 5 -23 10 -23 13 0 13 11 0 30 -8 12 -10 11 -10 -7z"/>
<path d="M5156 2094 c-5 -14 -4 -15 9 -4 17 14 19 20 6 20 -5 0 -12 -7 -15
-16z"/>
<path d="M4088 1733 c6 -2 18 -2 25 0 6 3 1 5 -13 5 -14 0 -19 -2 -12 -5z"/>
<path d="M4670 1725 c-11 -13 -10 -14 4 -9 9 3 16 10 16 15 0 13 -6 11 -20 -6z"/>
<path d="M4820 1680 c6 -11 13 -20 16 -20 2 0 0 9 -6 20 -6 11 -13 20 -16 20
-2 0 0 -9 6 -20z"/>
<path d="M5072 1620 c0 -14 2 -19 5 -12 2 6 2 18 0 25 -3 6 -5 1 -5 -13z"/>
<path d="M4548 1589 c-17 -18 -17 -19 2 -29 25 -13 40 -12 17 1 -14 8 -16 14
-6 25 18 21 7 24 -13 3z"/>
<path d="M5081 1580 c0 -8 4 -24 9 -35 5 -13 9 -14 9 -5 0 8 -4 24 -9 35 -5
13 -9 14 -9 5z"/>
<path d="M4597 1539 c7 -7 15 -10 18 -7 3 3 -2 9 -12 12 -14 6 -15 5 -6 -5z"/>
<path d="M4516 1505 c-3 -9 -6 -22 -5 -28 0 -7 5 -1 10 12 5 13 8 26 5 28 -2
2 -6 -3 -10 -12z"/>
<path d="M4994 1450 c53 -61 63 -71 39 -35 -12 17 -34 41 -49 55 -19 17 -15
10 10 -20z"/>
<path d="M4448 1463 c6 -2 18 -2 25 0 6 3 1 5 -13 5 -14 0 -19 -2 -12 -5z"/>
<path d="M4501 1433 c1 -22 2 -23 6 -8 3 11 10 23 17 27 7 5 5 8 -6 8 -13 0
-18 -7 -17 -27z"/>
<path d="M4560 1440 c34 -11 60 -11 35 0 -11 5 -29 8 -40 8 -16 0 -15 -2 5 -8z"/>
<path d="M4668 1413 c7 -3 16 -2 19 1 4 3 -2 6 -13 5 -11 0 -14 -3 -6 -6z"/>
<path d="M4493 1360 c0 -25 2 -35 4 -22 2 12 2 32 0 45 -2 12 -4 2 -4 -23z"/>
<path d="M4950 1386 c0 -3 9 -10 20 -16 11 -6 20 -8 20 -6 0 3 -9 10 -20 16
-11 6 -20 8 -20 6z"/>
<path d="M4865 1350 c27 -12 43 -12 25 0 -8 5 -22 9 -30 9 -10 0 -8 -3 5 -9z"/>
<path d="M4950 1320 c8 -5 20 -10 25 -10 6 0 3 5 -5 10 -8 5 -19 10 -25 10 -5
0 -3 -5 5 -10z"/>
<path d="M4558 1273 c18 -2 45 -2 60 0 15 2 0 4 -33 4 -33 0 -45 -2 -27 -4z"/>
<path d="M4748 1273 c18 -2 45 -2 60 0 15 2 0 4 -33 4 -33 0 -45 -2 -27 -4z"/>
<path d="M4873 1263 c9 -2 23 -2 30 0 6 3 -1 5 -18 5 -16 0 -22 -2 -12 -5z"/>
<path d="M4938 1253 c6 -2 18 -2 25 0 6 3 1 5 -13 5 -14 0 -19 -2 -12 -5z"/>
<path d="M4511 1234 c0 -11 3 -14 6 -6 3 7 2 16 -1 19 -3 4 -6 -2 -5 -13z"/>
<path d="M4988 1243 c6 -2 18 -2 25 0 6 3 1 5 -13 5 -14 0 -19 -2 -12 -5z"/>
<path d="M4905 1145 c-53 -17 -34 -18 35 0 30 7 44 13 30 13 -14 0 -43 -5 -65
-13z"/>
<path d="M4830 1120 c-8 -5 -10 -10 -5 -10 6 0 17 5 25 10 8 5 11 10 5 10 -5
0 -17 -5 -25 -10z"/>
<path d="M5240 2069 c0 -5 5 -7 10 -4 6 3 10 8 10 11 0 2 -4 4 -10 4 -5 0 -10
-5 -10 -11z"/>
<path d="M5370 1855 c0 -5 5 -17 10 -25 5 -8 10 -10 10 -5 0 6 -5 17 -10 25
-5 8 -10 11 -10 5z"/>
<path d="M4245 1970 c3 -5 8 -10 11 -10 2 0 4 5 4 10 0 6 -5 10 -11 10 -5 0
-7 -4 -4 -10z"/>
<path d="M4225 1940 c3 -5 14 -10 23 -10 15 0 15 2 2 10 -20 13 -33 13 -25 0z"/>
<path d="M5452 1940 c0 -14 2 -19 5 -12 2 6 2 18 0 25 -3 6 -5 1 -5 -13z"/>
<path d="M5401 1940 c0 -8 6 -24 14 -34 19 -25 19 -9 0 24 -8 14 -14 19 -14
10z"/>
<path d="M5462 1820 c0 -14 2 -19 5 -12 2 6 2 18 0 25 -3 6 -5 1 -5 -13z"/>
<path d="M5472 1765 c0 -16 2 -22 5 -12 2 9 2 23 0 30 -3 6 -5 -1 -5 -18z"/>
<path d="M4728 743 c7 -3 16 -2 19 1 4 3 -2 6 -13 5 -11 0 -14 -3 -6 -6z"/>
<path d="M20008 3080 c-93 -49 -107 -183 -26 -257 111 -102 298 10 258 156
-28 104 -136 151 -232 101z m168 -41 c54 -50 55 -134 3 -187 -51 -52 -120 -55
-178 -6 -59 50 -61 133 -5 189 49 49 130 51 180 4z"/>
<path d="M20020 2940 c0 -53 4 -90 10 -90 6 0 10 16 10 35 0 24 5 38 17 42 16
6 30 -6 64 -57 9 -14 20 -21 28 -16 9 6 5 16 -13 41 -25 32 -25 33 -6 50 44
40 7 85 -67 85 l-43 0 0 -90z m97 44 c8 -20 -14 -35 -47 -32 -17 2 -26 10 -28
26 -3 19 1 22 33 22 23 0 38 -5 42 -16z"/>
<path d="M6322 2911 c-24 -4 -53 -17 -65 -29 -21 -22 -22 -30 -25 -270 -2
-270 0 -285 53 -312 39 -19 392 -27 480 -11 86 16 99 33 103 135 l4 83 -45 12
c-25 6 -48 11 -51 11 -3 0 -6 -35 -8 -77 l-3 -78 -217 -3 -218 -2 0 230 0 230
220 0 220 0 0 -70 c0 -76 -2 -74 63 -63 l39 6 -4 77 c-4 94 -18 114 -89 129
-54 12 -388 13 -457 2z"/>
<path d="M7260 2913 c-14 -2 -39 -15 -55 -28 l-30 -23 -3 -243 c-3 -261 0
-285 47 -316 23 -16 53 -18 312 -18 314 0 327 2 351 59 18 43 19 468 0 511
-24 58 -32 60 -327 61 -148 1 -281 0 -295 -3z m530 -313 l0 -230 -257 2 -258
3 -3 215 c-1 118 0 220 2 227 4 10 63 13 261 13 l255 0 0 -230z"/>
<path d="M8245 2907 c-3 -7 -4 -149 -3 -317 l3 -305 53 -3 52 -3 0 125 0 126
220 0 c313 0 310 -2 310 200 0 109 -2 121 -22 145 -13 14 -41 30 -63 35 -65
15 -545 13 -550 -3z m521 -102 c19 -30 16 -157 -4 -177 -10 -10 -67 -14 -212
-15 l-200 -3 0 110 0 110 200 0 200 0 16 -25z"/>
<path d="M9170 2600 l0 -320 50 0 50 0 0 125 0 125 223 1 c122 1 233 4 246 8
51 14 66 52 69 177 3 102 2 117 -17 148 -31 49 -76 56 -371 56 l-250 0 0 -320z
m520 211 c5 -11 10 -53 10 -94 0 -57 -4 -78 -17 -88 -12 -11 -61 -14 -212 -14
l-196 0 -3 108 -3 107 205 0 c193 0 206 -1 216 -19z"/>
<path d="M10090 2600 l0 -320 305 0 305 0 0 45 0 45 -249 0 -249 0 -4 78 c-5
134 -20 122 153 122 l149 0 0 45 0 45 -150 0 -150 0 0 85 0 85 251 0 250 0 -3
43 -3 42 -302 3 -303 2 0 -320z"/>
<path d="M10980 2601 l0 -321 50 0 50 0 0 125 0 125 95 0 c84 0 97 -2 118 -22
13 -13 71 -69 129 -125 l105 -103 71 0 c75 0 84 5 55 30 -10 8 -71 60 -136
115 l-117 100 77 5 c129 10 143 29 143 191 0 119 -11 158 -53 181 -16 10 -98
14 -304 16 l-283 3 0 -320z m518 217 c14 -14 16 -166 2 -188 -8 -13 -43 -15
-212 -15 l-203 0 -3 108 -3 107 204 0 c144 0 206 -3 215 -12z"/>
<path d="M12466 2904 c-3 -9 -6 -145 -6 -304 0 -159 3 -295 6 -304 4 -11 19
-16 45 -16 l39 0 0 258 0 257 24 -41 c12 -22 52 -79 87 -127 35 -47 90 -122
122 -166 33 -45 62 -81 65 -81 19 1 49 43 236 319 l56 83 0 -251 0 -251 50 0
50 0 0 320 0 320 -48 0 -49 0 -139 -201 c-76 -110 -142 -203 -145 -205 -4 -2
-68 78 -142 179 -74 100 -145 192 -157 205 -25 27 -85 31 -94 6z"/>
<path d="M13713 2908 c-32 -7 -47 -17 -63 -43 -20 -33 -21 -45 -18 -272 3
-256 6 -268 57 -294 36 -18 498 -25 576 -9 93 19 95 27 95 310 0 214 -2 238
-19 267 -16 25 -30 33 -71 42 -62 13 -497 13 -557 -1z m542 -308 l0 -225 -257
-3 -258 -2 0 230 0 230 258 -2 257 -3 0 -225z"/>
<path d="M14754 2905 c-3 -8 -4 -133 -2 -277 4 -281 6 -293 55 -326 24 -15 56
-17 273 -17 135 0 258 3 273 8 15 4 36 22 47 40 19 30 20 51 20 310 l0 277
-50 0 -50 0 -2 -272 -3 -273 -227 -3 -228 -2 0 275 0 275 -50 0 c-35 0 -52 -4
-56 -15z"/>
<path d="M15730 2599 l0 -320 48 3 47 3 -1 248 0 247 50 -48 c62 -59 113 -106
329 -301 166 -150 206 -175 221 -136 7 19 7 592 -1 611 -3 9 -20 14 -49 14
l-44 0 0 -247 0 -248 -28 30 c-25 28 -129 123 -322 295 -46 41 -108 96 -137
123 -38 34 -62 47 -83 47 l-30 0 0 -321z"/>
<path d="M16680 2875 l0 -45 140 0 140 0 2 -272 3 -273 53 -3 52 -3 0 275 0
276 146 0 145 0 -3 43 -3 42 -337 3 -338 2 0 -45z"/>
<path d="M17794 2853 c-20 -37 -52 -94 -71 -126 -18 -32 -33 -60 -33 -63 0 -2
-22 -43 -48 -91 -27 -49 -68 -124 -92 -168 -23 -44 -47 -84 -51 -89 -21 -23
-8 -36 34 -36 23 0 47 4 52 8 6 4 26 39 46 77 l37 70 213 3 214 2 40 -77 40
-78 53 -1 c28 -1 54 1 56 5 2 3 -75 146 -170 316 l-173 310 -55 3 -54 3 -38
-68z m175 -175 l82 -158 -167 0 c-154 0 -166 1 -159 18 11 29 157 304 159 300
2 -2 40 -74 85 -160z"/>
<path d="M18520 2600 l0 -321 53 3 52 3 0 315 0 315 -52 3 -53 3 0 -321z"/>
<path d="M18980 2599 l0 -320 48 3 47 3 0 248 c0 223 2 246 15 230 9 -10 36
-36 60 -57 25 -21 70 -62 100 -90 30 -28 98 -89 150 -136 52 -47 113 -102 135
-122 79 -72 89 -79 115 -76 l25 3 0 315 0 315 -48 3 -48 3 3 -245 c3 -221 -2
-275 -18 -232 -3 7 -51 54 -107 104 -56 49 -111 98 -122 109 -11 10 -82 73
-157 141 -112 99 -144 122 -168 122 l-30 0 0 -321z"/>
<path d="M7140 1870 l0 -30 95 0 95 0 2 -182 3 -183 30 0 30 0 3 183 2 182
100 0 100 0 0 30 0 30 -230 0 -230 0 0 -30z"/>
<path d="M8124 1887 c-2 -7 -3 -102 -2 -212 l3 -200 205 0 205 0 0 25 0 25
-167 3 -168 2 0 70 0 70 100 0 100 0 0 25 c0 25 0 25 -99 25 l-99 0 -4 56 c-1
31 -1 58 1 60 2 2 78 4 168 4 l163 0 0 30 0 30 -200 0 c-154 0 -202 -3 -206
-13z"/>
<path d="M9153 1890 c-38 -16 -43 -42 -43 -208 0 -220 -14 -207 215 -207 174
0 177 0 196 24 13 16 19 39 19 77 0 47 -3 54 -19 54 -11 0 -26 3 -35 6 -12 5
-15 -5 -18 -48 l-3 -53 -142 -3 -143 -3 0 156 0 155 145 0 145 0 0 -46 c0 -45
0 -45 33 -42 l32 3 0 57 c0 33 -6 63 -13 70 -16 16 -335 23 -369 8z"/>
<path d="M10182 1688 l3 -213 32 -3 32 -3 3 98 3 98 162 3 162 2 3 -97 3 -98
33 -3 32 -3 0 215 0 216 -35 0 -35 0 0 -90 0 -90 -165 0 -165 0 0 90 0 90 -35
0 -35 0 2 -212z"/>
<path d="M11244 1887 c-2 -7 -3 -102 -2 -212 l3 -200 30 0 30 0 3 164 3 164
62 -59 c76 -73 230 -212 275 -249 59 -49 62 -41 62 195 l0 211 -32 -3 -33 -3
1 -157 c0 -87 -2 -158 -5 -158 -2 0 -30 24 -60 53 -61 56 -103 94 -222 200
-75 66 -105 80 -115 54z"/>
<path d="M12379 1889 c-41 -15 -49 -47 -49 -200 0 -177 9 -205 73 -214 24 -4
119 -5 211 -3 219 4 206 -10 206 217 0 129 -3 172 -14 187 -13 18 -29 19 -208
21 -109 1 -204 -2 -219 -8z m369 -201 l-3 -153 -170 0 -170 0 -3 153 -3 152
176 0 176 0 -3 -152z"/>
<path d="M13490 1685 l0 -215 193 2 192 3 3 27 3 27 -158 3 -158 3 -3 183 -2
182 -35 0 -35 0 0 -215z"/>
<path d="M14430 1889 c-13 -6 -28 -15 -32 -22 -4 -7 -8 -87 -8 -178 0 -230
-18 -214 239 -214 260 0 245 -11 249 188 4 170 -5 210 -50 226 -39 14 -363 14
-398 0z m378 -201 l-3 -153 -172 -3 -173 -2 0 155 0 155 175 0 176 0 -3 -152z"/>
<path d="M15545 1893 c-41 -10 -45 -29 -45 -208 0 -227 -19 -210 236 -210 239
0 228 -7 232 136 l4 100 -124 -3 c-115 -3 -123 -4 -123 -23 0 -18 8 -20 85
-25 l85 -5 0 -60 0 -60 -162 -3 -163 -2 0 155 0 155 163 -2 162 -3 3 -27 c3
-29 11 -32 50 -22 45 12 14 97 -39 108 -35 7 -333 6 -364 -1z"/>
<path d="M16582 1688 l3 -213 30 0 30 0 3 213 2 212 -35 0 -35 0 2 -212z"/>
<path d="M17280 1685 l0 -215 205 0 205 0 0 30 0 30 -170 0 -171 0 3 68 3 67
103 3 c101 3 102 3 102 27 0 25 0 25 -105 25 l-105 0 0 60 0 60 171 0 170 0
-3 28 -3 27 -202 3 -203 2 0 -215z"/>
<path d="M18353 1890 c-12 -5 -26 -18 -32 -29 -12 -22 -15 -150 -3 -167 18
-28 56 -34 202 -34 l151 0 -3 -62 -3 -63 -150 0 -150 0 -3 33 c-3 33 -10 36
-51 25 -21 -5 -23 -10 -18 -46 9 -68 18 -72 190 -76 93 -2 169 1 194 8 38 10
44 16 54 54 14 54 5 143 -17 168 -15 17 -33 19 -181 19 l-163 0 0 60 0 60 150
0 150 0 0 -31 c0 -24 3 -30 16 -25 9 3 22 6 30 6 21 0 18 53 -5 81 -19 23 -24
24 -178 26 -87 1 -168 -2 -180 -7z"/>
</g>
</svg>
